<svg width="37" height="43" viewBox="0 0 37 43" fill="none" xmlns="http://www.w3.org/2000/svg">
<g filter="url(#filter0_d_1_98)">
<path d="M31.0781 5.46875H22.875V10.9375H31.0781V5.46875Z" fill="#55CB95"/>
<path d="M18.5 26.7969C14.58 26.7969 11.3906 23.6075 11.3906 19.6875C11.3906 15.7675 14.58 12.5781 18.5 12.5781C22.42 12.5781 25.6094 15.7675 25.6094 19.6875C25.6094 23.6075 22.42 26.7969 18.5 26.7969Z" fill="#55CB95"/>
<path d="M31.625 30.5364V5.46875L30.4115 0.546875H6.58852L5.375 5.40148V30.5364L4.82812 32.177V34.4531H32.1719V32.177L31.625 30.5364ZM6.46875 27.8906V11.4844H30.5312V27.8906H28.3438V28.9844H30.5312V30.0781H6.46875V28.9844H27.25V27.8906H6.46875ZM12.4844 6.01562V10.3906H6.46875V6.01562H12.4844ZM30.5312 10.3906H13.5781V6.01562H30.5312V10.3906ZM29.5573 1.64062L30.3776 4.92188H6.62242L7.44273 1.64062H29.5573ZM31.0781 33.3594H5.92188V32.3542L6.31617 31.1719H30.6844L31.0781 32.3542V33.3594Z" fill="#55CB95"/>
<path d="M18.5 14.7656C15.7864 14.7656 13.5781 16.9734 13.5781 19.6875C13.5781 22.4016 15.7864 24.6094 18.5 24.6094C20.1412 24.6094 21.6702 23.7748 22.5802 22.4219H25.6094V21.3281H22.875V18.0469H25.6094V16.9531H22.5802C21.6702 15.6002 20.1412 14.7656 18.5 14.7656ZM18.5 23.5156C16.3891 23.5156 14.6719 21.7979 14.6719 19.6875C14.6719 17.5771 16.3891 15.8594 18.5 15.8594C19.8415 15.8594 21.0911 16.573 21.7812 17.722V21.6535C21.0911 22.802 19.8415 23.5156 18.5 23.5156Z" fill="#55CB95"/>
<path d="M15.7656 8.75H16.96C17.1864 9.38492 17.788 9.84375 18.5 9.84375C19.212 9.84375 19.8136 9.38492 20.04 8.75H21.2344V7.65625H20.04C19.8136 7.02133 19.212 6.5625 18.5 6.5625C17.788 6.5625 17.1864 7.02133 16.96 7.65625H15.7656V8.75ZM18.5 7.65625C18.8013 7.65625 19.0469 7.90125 19.0469 8.20312C19.0469 8.505 18.8013 8.75 18.5 8.75C18.1987 8.75 17.9531 8.505 17.9531 8.20312C17.9531 7.90125 18.1987 7.65625 18.5 7.65625Z" fill="#55CB95"/>
<path d="M25.0625 7.65625H23.9688V8.75H25.0625V7.65625Z" fill="#55CB95"/>
<path d="M27.25 7.65625H26.1562V8.75H27.25V7.65625Z" fill="#55CB95"/>
<path d="M29.4375 7.65625H28.3438V8.75H29.4375V7.65625Z" fill="#55CB95"/>
<path d="M15.2188 2.73438H8.65625V3.82812H15.2188V2.73438Z" fill="#55CB95"/>
<path d="M17.4062 2.73438H16.3125V3.82812H17.4062V2.73438Z" fill="#55CB95"/>
<path d="M11.3906 7.65625H7.5625V8.75H11.3906V7.65625Z" fill="#55CB95"/>
</g>
<defs>
<filter id="filter0_d_1_98" x="-3" y="0" width="43" height="43" filterUnits="userSpaceOnUse" color-interpolation-filters="sRGB">
<feFlood flood-opacity="0" result="BackgroundImageFix"/>
<feColorMatrix in="SourceAlpha" type="matrix" values="0 0 0 0 0 0 0 0 0 0 0 0 0 0 0 0 0 0 127 0" result="hardAlpha"/>
<feOffset dy="4"/>
<feGaussianBlur stdDeviation="2"/>
<feComposite in2="hardAlpha" operator="out"/>
<feColorMatrix type="matrix" values="0 0 0 0 0 0 0 0 0 0 0 0 0 0 0 0 0 0 0.25 0"/>
<feBlend mode="normal" in2="BackgroundImageFix" result="effect1_dropShadow_1_98"/>
<feBlend mode="normal" in="SourceGraphic" in2="effect1_dropShadow_1_98" result="shape"/>
</filter>
</defs>
</svg>
